<svg width="46" height="46" viewBox="0 0 46 46" fill="none" xmlns="http://www.w3.org/2000/svg">
<path d="M23 40.25H25.3958C32.1256 40.25 35.4904 40.25 37.9076 38.6349C38.954 37.9357 39.8524 37.0373 40.5516 35.9909C42.1667 33.5737 42.1667 30.2089 42.1667 23.4792C42.1667 19.4413 42.1667 17.4224 41.1976 15.9721C40.7781 15.3443 40.239 14.8052 39.6112 14.3857C38.1609 13.4167 36.142 13.4167 32.1042 13.4167H23L21.7859 10.9885C20.7801 8.97685 19.8609 6.95197 17.6319 6.1161C16.6556 5.75 15.5404 5.75 13.3099 5.75C9.82829 5.75 8.08751 5.75 6.7813 6.47894C5.85019 6.99856 5.0819 7.76684 4.56228 8.69795C3.83334 10.0042 3.83334 11.7449 3.83334 15.2265V21.0833C3.83334 30.1186 3.83334 34.6362 6.64024 37.4431C9.44713 40.25 13.9648 40.25 23 40.25Z" fill="#8578F7"/>
</svg>
