<svg width="36" height="36" viewBox="0 0 36 36" fill="none" xmlns="http://www.w3.org/2000/svg">
<path d="M12 25.5H24" stroke="#6D5DF6" stroke-width="1.5" stroke-linecap="round" stroke-linejoin="round"/>
<path d="M12 19.5H18" stroke="#6D5DF6" stroke-width="1.5" stroke-linecap="round" stroke-linejoin="round"/>
<path d="M19.5 3.75V4.5C19.5 8.74264 19.5 10.864 20.818 12.182C22.136 13.5 24.2574 13.5 28.5 13.5H29.25M30 15.9853V21C30 26.6569 30 29.4853 28.2426 31.2426C26.4853 33 23.6569 33 18 33C12.3431 33 9.51472 33 7.75736 31.2426C6 29.4853 6 26.6569 6 21V14.1838C6 9.31623 6 6.88246 7.32911 5.23399C7.59762 4.90097 7.90097 4.59762 8.23399 4.32911C9.88246 3 12.3162 3 17.1838 3C18.2421 3 18.7712 3 19.2558 3.17101C19.3566 3.20658 19.4554 3.24751 19.5518 3.29362C20.0153 3.51533 20.3895 3.8895 21.1378 4.63782L28.2426 11.7426C29.1097 12.6097 29.5433 13.0433 29.7716 13.5946C30 14.1459 30 14.759 30 15.9853Z" stroke="#6D5DF6" stroke-width="1.5" stroke-linecap="round" stroke-linejoin="round"/>
</svg>
