<svg width="24" height="24" viewBox="0 0 24 24" fill="none" xmlns="http://www.w3.org/2000/svg">
<path d="M7.5 9.05556H16.275C18.171 9.05556 19.119 9.05556 19.8 9.50497C20.0949 9.69953 20.348 9.94953 20.545 10.2407C21 10.9133 21 11.8496 21 13.7222C21 16.8432 21 18.4038 20.2416 19.5248C19.9133 20.01 19.4914 20.4267 19.0001 20.751C17.8651 21.5 16.285 21.5 13.125 21.5H12C7.75736 21.5 5.63604 21.5 4.31802 20.1983C3 18.8965 3 16.8014 3 12.6111V9.89491C3 8.28027 3 7.47294 3.34228 6.86717C3.58628 6.43535 3.94704 6.07904 4.38426 5.83806C4.99761 5.5 5.81502 5.5 7.44984 5.5C8.49722 5.5 9.02091 5.5 9.47933 5.66978C10.526 6.05744 10.9576 6.99651 11.4299 7.92945L12 9.05556" stroke="#393E4B" stroke-width="1.5" stroke-linecap="round"/>
<path d="M3 2.50022H8.5C9.47008 2.50022 10.4182 2.47191 11.2387 3.05545C12.29 3.80312 12.71 5.19733 13.7613 5.945C14.5818 6.52854 15.5299 6.50022 16.5 6.50022H21" stroke="#393E4B" stroke-width="1.5" stroke-linecap="round"/>
</svg>
