<svg width="32" height="32" viewBox="0 0 32 32" fill="none" xmlns="http://www.w3.org/2000/svg">
<path d="M10 12.074H21.7C24.228 12.074 25.492 12.074 26.4001 12.6732C26.7931 12.9326 27.1306 13.266 27.3933 13.6542C28 14.551 28 15.7994 28 18.2962C28 22.4576 28 24.5383 26.9888 26.0329C26.5511 26.68 25.9886 27.2355 25.3334 27.6679C23.8201 28.6666 21.7134 28.6666 17.5 28.6666H16C10.3431 28.6666 7.51472 28.6666 5.75736 26.9309C4 25.1953 4 22.4018 4 16.8147V13.1931C4 11.0403 4 9.96384 4.45638 9.15614C4.7817 8.58038 5.26272 8.10531 5.84568 7.784C6.66348 7.33325 7.75336 7.33325 9.93313 7.33325C11.3296 7.33325 12.0279 7.33325 12.6391 7.55963C14.0347 8.0765 14.6101 9.3286 15.2399 10.5725L16 12.074" stroke="#6D5DF6" stroke-width="1.5" stroke-linecap="round"/>
<path d="M4 3.33355H11.3333C12.6268 3.33355 13.8909 3.2958 14.9849 4.07385C16.3867 5.07074 16.9467 6.92969 18.3484 7.92658C19.4424 8.70463 20.7066 8.66688 22 8.66688H28" stroke="#6D5DF6" stroke-width="1.5" stroke-linecap="round"/>
</svg>
